
<svg width="292px" height="312px" viewBox="0 0 292 312" version="1.1" xmlns="http://www.w3.org/2000/svg" xmlns:xlink="http://www.w3.org/1999/xlink">
    <!-- Generator: Sketch 41.1 (35376) - http://www.bohemiancoding.com/sketch -->
    <desc>Created with Sketch.</desc>
    <defs></defs>
    <path d="M179.3164,281.952 C174.2944,279.708 169.3574,277.51 166.7974,276.391 C164.1904,275.053 161.0264,273.523 157.6724,271.944 C196.0164,246.098 212.7704,211.742 214.8924,202.971 C220.1294,183.419 199.4374,172.724 199.4374,172.724 C199.4374,172.724 176.3874,229.715 138.0914,263.057 C133.0574,260.835 129.5514,259.325 129.5514,259.325 C96.5864,244.848 70.5964,239.791 57.1754,244.461 C57.2334,245.084 57.3304,245.708 57.5034,246.326 C57.7594,247.238 58.1464,248.049 58.5994,248.782 C58.7824,248.81 58.9674,248.837 59.1534,248.863 C73.9244,250.562 97.2524,261.87 114.5314,270.576 C115.6134,271.185 118.8434,272.827 122.4484,274.636 C110.5044,281.965 97.4344,286.598 83.3754,286.598 C63.6274,286.598 49.2384,277.744 40.5654,260.27 C38.8194,256.91 37.2494,253.069 36.6264,250.662 C31.9334,236.294 30.3724,217.936 32.1134,197.318 C35.5314,156.858 54.1584,107.418 83.1104,72.085 C114.8244,33.381 153.0404,12.763 190.7144,12.763 C239.0964,12.763 260.4354,59.017 260.4354,102.642 C260.4354,190.285 213.9334,251.272 184.0804,277.679 C184.0804,277.679 182.3664,279.356 179.3164,281.952 L179.3164,281.952 Z M263.3434,293.77 C255.4124,300.201 247.2484,302.832 238.3824,301.812 C223.6594,300.118 212.6454,297.14 196.5794,289.605 C195.8574,289.266 194.7894,288.853 193.8654,288.466 C193.5404,288.321 193.1164,288.13 192.6474,287.921 C194.9514,286.387 197.1994,284.866 199.2694,283.429 C242.0244,251.525 291.4564,192.939 291.4564,110.785 C291.4564,58.094 255.9934,0 192.8564,0 C85.4234,0 0.0004,109.11 0.0004,197.567 C0.0004,209.36 0.9924,219.945 3.0324,229.928 C8.0834,254.577 32.9594,296.99 83.6924,296.99 C97.7764,296.99 115.5104,293.219 127.1484,288.244 C131.2524,286.563 135.1754,284.757 138.9564,282.863 C140.8454,283.831 142.9934,284.92 145.9294,286.274 C149.6754,288.006 157.1974,291.163 163.4894,293.77 C154.0374,299.969 141.9294,306.487 128.3644,310.366 C136.3494,313.864 159.4264,308.552 173.2754,300.31 C174.0224,299.855 174.8504,299.346 175.7244,298.804 C192.9284,305.715 206.9374,309.613 221.1854,311.252 C254.6944,315.106 263.4974,301.934 264.4204,299.269 C265.4234,296.368 263.5874,293.598 263.5874,293.598 L263.3434,293.77 Z" id="Fill-1" stroke="none" fill="#221F20" fill-rule="evenodd"></path>
</svg>